<svg width="31" height="31" viewBox="0 0 31 31" fill="none" xmlns="http://www.w3.org/2000/svg">
<g clip-path="url(#clip0_886_49)">
<path d="M28.4231 17.939L30.9673 6.74454C31.151 5.93628 30.5367 5.16661 29.7078 5.16661H8.56849L8.07518 2.75496C7.95225 2.15385 7.42332 1.72217 6.80972 1.72217H1.29167C0.57829 1.72217 0 2.30046 0 3.01383V3.87495C0 4.58832 0.57829 5.16661 1.29167 5.16661H5.05273L8.83344 23.6501C7.92895 24.1703 7.31944 25.1456 7.31944 26.2638C7.31944 27.9284 8.66881 29.2777 10.3333 29.2777C11.9979 29.2777 13.3472 27.9284 13.3472 26.2638C13.3472 25.4203 13.0002 24.6581 12.4418 24.1111H23.7249C23.1664 24.6581 22.8194 25.4203 22.8194 26.2638C22.8194 27.9284 24.1688 29.2777 25.8333 29.2777C27.4979 29.2777 28.8472 27.9284 28.8472 26.2638C28.8472 25.0705 28.1536 24.0394 27.1477 23.5511L27.4446 22.2445C27.6283 21.4363 27.0139 20.6666 26.185 20.6666H11.7389L11.3867 18.9444H27.1636C27.7667 18.9444 28.2895 18.5271 28.4231 17.939Z" fill="#F4B647"/>
</g>
<defs>
<clipPath id="clip0_886_49">
<rect width="31" height="31" fill="white"/>
</clipPath>
</defs>
</svg>
