<svg width="56" height="56" viewBox="0 0 56 56" fill="none" xmlns="http://www.w3.org/2000/svg">
<g clip-path="url(#clip0_71_142)">
<path d="M51.345 32.406L55.941 12.1838C56.2728 10.7237 55.163 9.33331 53.6657 9.33331H15.4786L14.5874 4.97678C14.3654 3.8909 13.4099 3.11108 12.3014 3.11108H2.33333C1.04465 3.11108 0 4.15574 0 5.44442V6.99997C0 8.28865 1.04465 9.33331 2.33333 9.33331H9.12751L15.9572 42.7228C14.3233 43.6625 13.2222 45.4243 13.2222 47.4444C13.2222 50.4513 15.6598 52.8889 18.6667 52.8889C21.6736 52.8889 24.1111 50.4513 24.1111 47.4444C24.1111 45.9206 23.4843 44.5438 22.4754 43.5555H42.8578C41.849 44.5438 41.2222 45.9206 41.2222 47.4444C41.2222 50.4513 43.6598 52.8889 46.6667 52.8889C49.6736 52.8889 52.1111 50.4513 52.1111 47.4444C52.1111 45.2888 50.8581 43.426 49.0409 42.5439L49.5773 40.1838C49.9091 38.7237 48.7993 37.3333 47.302 37.3333H21.2058L20.5695 34.2222H49.0697C50.1592 34.2222 51.1036 33.4683 51.345 32.406Z" fill="black"/>
</g>
<defs>
<clipPath id="clip0_71_142">
<rect width="56" height="56" fill="white"/>
</clipPath>
</defs>
</svg>
