<svg width="31" height="31" viewBox="0 0 31 31" fill="none" xmlns="http://www.w3.org/2000/svg">
<g clip-path="url(#clip0_886_51)">
<path d="M27.9618 11.9587C27.7802 11.2724 27.0764 10.8632 26.3901 11.0448C26.2771 11.0783 25.5741 11.2657 24.8134 11.9131C24.4359 12.2369 24.0485 12.6851 23.7622 13.2726C23.4747 13.8593 23.2969 14.579 23.2986 15.3937C23.2994 16.3834 23.5488 17.5065 24.1125 18.7999C24.4928 19.672 24.6661 20.598 24.6661 21.5152C24.6699 23.0668 24.1552 24.5883 23.3873 25.6495C23.0061 26.1809 22.5671 26.5944 22.127 26.8618C21.9462 26.9714 21.7671 27.0514 21.5888 27.1149L21.6487 26.7605C21.6454 25.7294 21.4035 24.651 20.8603 23.7012C19.1435 20.6955 16.8507 15.543 16.8507 15.543L16.7583 15.2476C18.5426 14.7756 20.305 13.8303 21.1872 11.9185C23.5443 6.81169 18.6999 3.2766 18.6999 3.2766C18.6999 3.2766 17.1282 -0.127462 16.3432 0.00344C15.5574 0.134463 13.8551 2.36059 13.8551 2.36059H12.4148H10.9745C10.9745 2.36059 9.27262 0.134463 8.48721 0.00344C7.70137 -0.127523 6.13048 3.2766 6.13048 3.2766C6.13048 3.2766 1.28564 6.81169 3.64279 11.9185C4.47967 13.732 6.10953 14.6777 7.79837 15.1727L7.61969 15.7577C7.61969 15.7577 5.68776 20.6955 3.96999 23.7012C2.25264 26.7066 3.54107 30.9998 5.90234 30.9998C7.68666 30.9998 10.694 30.9998 12.0595 30.9998C12.501 30.9998 12.7717 30.9998 12.7717 30.9998C14.1367 30.9998 17.1445 30.9998 18.9288 30.9998C19.6949 30.9998 20.3443 30.5429 20.8181 29.8298C21.7763 29.829 22.6835 29.5348 23.4644 29.0573C24.6423 28.3359 25.5658 27.2216 26.2153 25.9152C26.8622 24.6063 27.2358 23.0915 27.2372 21.5151C27.2372 20.2749 27.002 18.9952 26.4693 17.7726C26.0115 16.7227 25.8688 15.9431 25.8697 15.3937C25.8714 14.938 25.9605 14.6342 26.073 14.3999C26.1588 14.2249 26.2622 14.0868 26.3747 13.9705C26.5425 13.7969 26.7359 13.6751 26.8803 13.604C26.9518 13.5679 27.0095 13.5454 27.0422 13.5336L27.0693 13.5244L27.0689 13.5227C27.7417 13.3316 28.1413 12.6374 27.9618 11.9587Z" fill="#F4B647"/>
</g>
<defs>
<clipPath id="clip0_886_51">
<rect width="31" height="31" fill="white"/>
</clipPath>
</defs>
</svg>
