<?xml version="1.0" encoding="UTF-8"?>
<svg xmlns="http://www.w3.org/2000/svg" xmlns:xlink="http://www.w3.org/1999/xlink" width="30px" height="30px" viewBox="0 0 30 30" version="1.1">
<g id="surface1">
<path style=" stroke:none;fill-rule:nonzero;fill:rgb(99.607843%,99.607843%,99.607843%);fill-opacity:1;" d="M 0 0 C 9.898438 0 19.800781 0 30 0 C 30 9.898438 30 19.800781 30 30 C 20.101562 30 10.199219 30 0 30 C 0 20.101562 0 10.199219 0 0 Z M 0 0 "/>
<path style=" stroke:none;fill-rule:nonzero;fill:rgb(92.156863%,72.549021%,36.470589%);fill-opacity:1;" d="M 20.445312 7.039062 C 22.199219 8.453125 23.632812 10.335938 24.183594 12.691406 C 24.644531 16.03125 24.402344 18.929688 22.65625 21.765625 C 21.207031 23.757812 18.980469 25.34375 16.667969 25.789062 C 13.90625 26.089844 11.558594 25.414062 9.300781 23.617188 C 8.265625 22.648438 7.550781 21.574219 6.90625 20.261719 C 6.804688 20.070312 6.707031 19.875 6.605469 19.675781 C 5.644531 17.464844 5.601562 14.867188 6.171875 12.523438 C 7.257812 9.453125 8.910156 7.328125 11.65625 5.96875 C 14.722656 4.726562 17.648438 5.109375 20.445312 7.039062 Z M 20.445312 7.039062 "/>
<path style=" stroke:none;fill-rule:nonzero;fill:rgb(99.607843%,99.215686%,98.039216%);fill-opacity:1;" d="M 18.332031 11.578125 C 18.925781 11.894531 19.449219 12.226562 20 12.632812 C 19.605469 13.664062 18.976562 14.445312 18.320312 15.28125 C 18.082031 15.582031 17.847656 15.886719 17.609375 16.191406 C 17.492188 16.34375 17.375 16.496094 17.253906 16.652344 C 16.554688 17.5625 15.882812 18.5 15.207031 19.4375 C 14.761719 20 14.761719 20 14.046875 20.527344 C 12.867188 19.222656 11.691406 17.921875 10.476562 16.578125 C 10.953125 15.527344 10.953125 15.527344 11.90625 14.738281 C 12.535156 15.429688 13.160156 16.125 13.808594 16.84375 C 14.800781 16.296875 15.132812 15.894531 15.804688 14.949219 C 15.988281 14.691406 16.175781 14.433594 16.367188 14.167969 C 16.542969 13.921875 16.722656 13.675781 16.90625 13.421875 C 17.375 12.800781 17.855469 12.191406 18.332031 11.578125 Z M 18.332031 11.578125 "/>
</g>
</svg>
