<svg width="21" height="21" viewBox="0 0 21 21" fill="none" xmlns="http://www.w3.org/2000/svg">
<path d="M10.5 0C4.70006 0 0 4.70137 0 10.5C0 16.2986 4.70006 21 10.5 21C16.2999 21 21 16.2986 21 10.5C21 4.70137 16.2999 0 10.5 0ZM15.3654 13.5096C15.8786 14.0227 15.8786 14.8523 15.3654 15.3654C15.1095 15.6214 14.7735 15.75 14.4375 15.75C14.1015 15.75 13.7655 15.6214 13.5096 15.3654L10.5 12.3559L7.49044 15.3654C7.2345 15.6214 6.8985 15.75 6.5625 15.75C6.2265 15.75 5.8905 15.6214 5.63456 15.3654C5.12138 14.8523 5.12138 14.0227 5.63456 13.5096L8.64413 10.5L5.63456 7.49044C5.12138 6.97725 5.12138 6.14775 5.63456 5.63456C6.14775 5.12138 6.97725 5.12138 7.49044 5.63456L10.5 8.64413L13.5096 5.63456C14.0227 5.12138 14.8523 5.12138 15.3654 5.63456C15.8786 6.14775 15.8786 6.97725 15.3654 7.49044L12.3559 10.5L15.3654 13.5096Z" fill="#C9CBD4"/>
</svg>
