<svg width="56" height="56" viewBox="0 0 56 56" fill="none" xmlns="http://www.w3.org/2000/svg">
<g clip-path="url(#clip0_71_161)">
<path d="M50.5115 21.6031C50.1834 20.3633 48.912 19.6241 47.6723 19.9522C47.4682 20.0126 46.1983 20.3513 44.824 21.5207C44.1421 22.1058 43.4422 22.9153 42.9251 23.9766C42.4058 25.0365 42.0846 26.3366 42.0876 27.8083C42.089 29.5961 42.5397 31.625 43.5578 33.9615C44.2449 35.5368 44.558 37.2096 44.558 38.8665C44.5647 41.6694 43.6351 44.4179 42.2479 46.3349C41.5592 47.2949 40.7663 48.0418 39.9711 48.5248C39.6445 48.7228 39.3211 48.8673 38.999 48.9821L39.1072 48.3419C39.1011 46.4792 38.6642 44.5312 37.683 42.8154C34.5815 37.3857 30.4398 28.0781 30.4398 28.0781L30.2728 27.5444C33.4961 26.6917 36.6799 24.9842 38.2734 21.5304C42.5315 12.3053 33.7803 5.91935 33.7803 5.91935C33.7803 5.91935 30.9411 -0.229936 29.5229 0.00653316C28.1035 0.243221 25.0283 4.26461 25.0283 4.26461H22.4265H19.8247C19.8247 4.26461 16.7504 0.243221 15.3315 0.00653316C13.912 -0.230045 11.0742 5.91935 11.0742 5.91935C11.0742 5.91935 2.32226 12.3053 6.58034 21.5304C8.09212 24.8066 11.0364 26.5149 14.0872 27.4091L13.7644 28.4659C13.7644 28.4659 10.2745 37.3857 7.1714 42.8154C4.06909 48.2444 6.39659 56 10.6621 56C13.8854 56 19.318 56 21.7847 56C22.5822 56 23.0712 56 23.0712 56C25.537 56 30.9705 56 34.1937 56C35.5777 56 36.7509 55.1745 37.6066 53.8864C39.3376 53.885 40.9765 53.3535 42.3871 52.491C44.515 51.1878 46.1833 49.1748 47.3564 46.8149C48.5251 44.4504 49.2001 41.7141 49.2025 38.8664C49.2025 36.6259 48.7775 34.3143 47.8154 32.1056C46.9884 30.209 46.7306 28.8007 46.7321 27.8082C46.7352 26.9851 46.8962 26.4362 47.0995 26.013C47.2545 25.697 47.4412 25.4475 47.6445 25.2374C47.9476 24.9237 48.2968 24.7037 48.5577 24.5752C48.687 24.5101 48.7912 24.4693 48.8502 24.4481L48.8993 24.4315L48.8985 24.4284C50.1139 24.0831 50.8358 22.8292 50.5115 21.6031Z" fill="#C9CBD4"/>
</g>
<defs>
<clipPath id="clip0_71_161">
<rect width="56" height="56" fill="white"/>
</clipPath>
</defs>
</svg>
