<svg width="56" height="56" viewBox="0 0 56 56" fill="none" xmlns="http://www.w3.org/2000/svg">
<path d="M51.3327 28C51.3327 15.1433 40.856 4.66663 27.9993 4.66663C15.1427 4.66663 4.66602 15.1433 4.66602 28C4.66602 34.7666 7.58268 40.8566 12.2027 45.1266C12.2027 45.15 12.2027 45.15 12.1793 45.1733C12.4127 45.4066 12.6927 45.5933 12.926 45.8033C13.066 45.92 13.1827 46.0366 13.3227 46.13C13.7427 46.48 14.2093 46.8066 14.6527 47.1333C14.816 47.25 14.956 47.3433 15.1193 47.46C15.5627 47.7633 16.0293 48.0433 16.5193 48.3C16.6827 48.3933 16.8693 48.51 17.0327 48.6033C17.4993 48.86 17.9893 49.0933 18.5027 49.3033C18.6893 49.3966 18.876 49.49 19.0627 49.56C19.576 49.77 20.0893 49.9566 20.6027 50.12C20.7893 50.19 20.976 50.26 21.1627 50.3066C21.7227 50.47 22.2827 50.61 22.8427 50.75C23.006 50.7966 23.1693 50.8433 23.356 50.8666C24.0093 51.0066 24.6627 51.1 25.3393 51.17C25.4327 51.17 25.526 51.1933 25.6193 51.2166C26.4127 51.2866 27.206 51.3333 27.9993 51.3333C28.7927 51.3333 29.586 51.2866 30.356 51.2166C30.4493 51.2166 30.5427 51.1933 30.636 51.17C31.3127 51.1 31.966 51.0066 32.6193 50.8666C32.7827 50.8433 32.946 50.7733 33.1327 50.75C33.6927 50.61 34.276 50.4933 34.8127 50.3066C34.9993 50.2366 35.186 50.1666 35.3727 50.12C35.886 49.9333 36.4227 49.77 36.9127 49.56C37.0993 49.49 37.286 49.3966 37.4727 49.3033C37.9627 49.0933 38.4527 48.86 38.9427 48.6033C39.1293 48.51 39.2927 48.3933 39.456 48.3C39.9227 48.02 40.3893 47.7633 40.856 47.46C41.0193 47.3666 41.1593 47.25 41.3227 47.1333C41.7893 46.8066 42.2327 46.48 42.6527 46.13C42.7927 46.0133 42.9093 45.8966 43.0494 45.8033C43.306 45.5933 43.5627 45.3833 43.796 45.1733C43.796 45.15 43.796 45.15 43.7727 45.1266C48.416 40.8566 51.3327 34.7666 51.3327 28ZM39.526 39.5966C33.2027 35.35 22.8427 35.35 16.4727 39.5966C15.446 40.2733 14.606 41.0666 13.906 41.93C10.3593 38.3366 8.16602 33.4133 8.16602 28C8.16602 17.0566 17.056 8.16663 27.9993 8.16663C38.9427 8.16663 47.8327 17.0566 47.8327 28C47.8327 33.4133 45.6394 38.3366 42.0927 41.93C41.416 41.0666 40.5527 40.2733 39.526 39.5966Z" fill="#292D32"/>
<path d="M28 16.1693C23.17 16.1693 19.25 20.0893 19.25 24.9193C19.25 29.656 22.96 33.506 27.8833 33.646C27.9533 33.646 28.0467 33.646 28.0933 33.646C28.14 33.646 28.21 33.646 28.2567 33.646C28.28 33.646 28.3033 33.646 28.3033 33.646C33.0167 33.4827 36.7267 29.656 36.75 24.9193C36.75 20.0893 32.83 16.1693 28 16.1693Z" fill="#292D32"/>
</svg>
