<svg width="56" height="56" viewBox="0 0 56 56" fill="none" xmlns="http://www.w3.org/2000/svg">
<path fill-rule="evenodd" clip-rule="evenodd" d="M11.1996 25.2C11.1996 21.4869 12.6746 17.926 15.3001 15.3005C17.9256 12.675 21.4866 11.2 25.1996 11.2C28.9126 11.2 32.4736 12.675 35.0991 15.3005C37.7246 17.926 39.1996 21.4869 39.1996 25.2C39.1996 28.913 37.7246 32.474 35.0991 35.0995C32.4736 37.725 28.9126 39.2 25.1996 39.2C21.4866 39.2 17.9256 37.725 15.3001 35.0995C12.6746 32.474 11.1996 28.913 11.1996 25.2ZM25.1996 5.59998C22.094 5.59998 19.0328 6.33798 16.2683 7.75317C13.5038 9.16835 11.1152 11.2202 9.29927 13.7397C7.48336 16.2591 6.29214 19.174 5.82378 22.2441C5.35542 25.3143 5.62332 28.4518 6.60542 31.398C7.58751 34.3443 9.25568 37.0151 11.4725 39.1902C13.6892 41.3652 16.3911 42.9824 19.3555 43.9084C22.3199 44.8344 25.4619 45.0428 28.5226 44.5162C31.5833 43.9897 34.4751 42.7434 36.9596 40.88C37.0392 40.9859 37.1262 41.086 37.22 41.1796L45.62 49.5796C46.1481 50.0896 46.8554 50.3718 47.5895 50.3655C48.3237 50.3591 49.026 50.0646 49.5451 49.5455C50.0643 49.0263 50.3587 48.324 50.3651 47.5899C50.3715 46.8557 50.0893 46.1485 49.5792 45.6204L41.1792 37.2204C41.0856 37.1266 40.9855 37.0396 40.8796 36.96C43.0636 34.048 44.3935 30.5854 44.7204 26.9602C45.0473 23.3349 44.3582 19.6903 42.7304 16.4346C41.1026 13.1789 38.6003 10.4409 35.5039 8.52722C32.4076 6.61358 28.8396 5.59998 25.1996 5.59998Z" fill="black"/>
</svg>
