<svg width="32" height="31" viewBox="0 0 32 31" fill="none" xmlns="http://www.w3.org/2000/svg">
<path fill-rule="evenodd" clip-rule="evenodd" d="M6.39922 13.9501C6.39922 11.8947 7.24208 9.92343 8.74237 8.47002C10.2427 7.01661 12.2775 6.2001 14.3992 6.2001C16.521 6.2001 18.5558 7.01661 20.0561 8.47002C21.5564 9.92343 22.3992 11.8947 22.3992 13.9501C22.3992 16.0055 21.5564 17.9768 20.0561 19.4302C18.5558 20.8836 16.521 21.7001 14.3992 21.7001C12.2775 21.7001 10.2427 20.8836 8.74237 19.4302C7.24208 17.9768 6.39922 16.0055 6.39922 13.9501ZM14.3992 3.1001C12.6246 3.1001 10.8753 3.50863 9.2956 4.29204C7.71589 5.07545 6.35097 6.2113 5.31331 7.60599C4.27565 9.00068 3.59495 10.6143 3.32731 12.3138C3.05968 14.0134 3.21277 15.7502 3.77397 17.3812C4.33516 19.0121 5.2884 20.4906 6.55513 21.6947C7.82186 22.8987 9.36581 23.794 11.0597 24.3066C12.7537 24.8192 14.5491 24.9345 16.2981 24.643C18.0471 24.3515 19.6995 23.6616 21.1192 22.6301C21.1647 22.6887 21.2144 22.7441 21.268 22.7959L26.068 27.4459C26.3698 27.7283 26.7739 27.8845 27.1935 27.881C27.613 27.8775 28.0143 27.7144 28.3109 27.4271C28.6076 27.1397 28.7759 26.7509 28.7795 26.3445C28.7831 25.9381 28.6219 25.5466 28.3304 25.2542L23.5304 20.6042C23.4769 20.5523 23.4197 20.5042 23.3592 20.4601C24.6072 18.8481 25.3672 16.9313 25.554 14.9245C25.7408 12.9177 25.347 10.9001 24.4168 9.09783C23.4866 7.29558 22.0567 5.77987 20.2874 4.72054C18.5181 3.6612 16.4792 3.1001 14.3992 3.1001Z" fill="#F4B647"/>
</svg>
