<?xml version="1.0" encoding="UTF-8"?>
<svg xmlns="http://www.w3.org/2000/svg" xmlns:xlink="http://www.w3.org/1999/xlink" width="30px" height="30px" viewBox="0 0 30 30" version="1.1">
<g id="surface1">
<path style=" stroke:none;fill-rule:nonzero;fill:rgb(99.607843%,99.607843%,99.607843%);fill-opacity:1;" d="M 0 0 C 9.898438 0 19.800781 0 30 0 C 30 9.898438 30 19.800781 30 30 C 20.101562 30 10.199219 30 0 30 C 0 20.101562 0 10.199219 0 0 Z M 0 0 "/>
<path style=" stroke:none;fill-rule:nonzero;fill:rgb(90.980393%,92.156863%,90.980393%);fill-opacity:1;" d="M 20.238281 5.789062 C 20.960938 6.230469 21.542969 6.738281 22.144531 7.367188 C 22.308594 7.535156 22.46875 7.703125 22.640625 7.875 C 24.425781 9.882812 25.285156 12.222656 25.371094 15.03125 C 25.25 18.347656 23.984375 20.671875 21.890625 22.945312 C 19.980469 24.734375 17.757812 25.496094 15.269531 25.375 C 12.542969 24.972656 10.195312 23.421875 8.453125 21.09375 C 6.875 18.597656 6.667969 15.851562 6.90625 12.894531 C 7.402344 10.191406 8.863281 7.96875 10.890625 6.390625 C 11.886719 5.765625 12.957031 5.378906 14.046875 5 C 16.136719 4.230469 18.261719 4.890625 20.238281 5.789062 Z M 20.238281 5.789062 "/>
<path style=" stroke:none;fill-rule:nonzero;fill:rgb(76.47059%,76.862746%,76.47059%);fill-opacity:1;" d="M 19.046875 11.050781 C 19.609375 11.160156 19.964844 11.289062 20.429688 11.660156 C 20.714844 12.105469 20.714844 12.105469 20.683594 12.574219 C 20.390625 13.394531 19.925781 13.886719 19.375 14.523438 C 18.457031 15.601562 17.605469 16.710938 16.796875 17.890625 C 16.296875 18.613281 15.769531 19.304688 15.238281 20 C 14.546875 19.65625 14.050781 19.28125 13.515625 18.691406 C 13.378906 18.542969 13.242188 18.390625 13.101562 18.238281 C 12.960938 18.082031 12.824219 17.925781 12.679688 17.761719 C 12.535156 17.605469 12.390625 17.449219 12.246094 17.289062 C 12.109375 17.140625 11.972656 16.988281 11.835938 16.832031 C 11.710938 16.695312 11.585938 16.558594 11.460938 16.417969 C 11.191406 16.050781 11.191406 16.050781 11.191406 15.527344 C 11.578125 15.078125 11.972656 14.636719 12.382812 14.210938 C 13.152344 14.589844 13.71875 15.066406 14.34375 15.691406 C 14.511719 15.855469 14.679688 16.023438 14.855469 16.195312 C 14.980469 16.320312 15.109375 16.449219 15.238281 16.578125 C 15.289062 16.441406 15.34375 16.300781 15.394531 16.160156 C 15.835938 15.285156 16.417969 14.566406 17.007812 13.816406 C 18.0625 12.464844 18.0625 12.464844 19.046875 11.050781 Z M 19.046875 11.050781 "/>
</g>

</svg>
