<svg width="15" height="15" viewBox="0 0 15 15" fill="none" xmlns="http://www.w3.org/2000/svg">
<path d="M7.5 1.25C6.26387 1.25 5.05549 1.61656 4.02769 2.30331C2.99988 2.99007 2.1988 3.96619 1.72576 5.10823C1.25271 6.25027 1.12894 7.50693 1.37009 8.71931C1.61125 9.93169 2.20651 11.0453 3.08058 11.9194C3.95466 12.7935 5.06831 13.3888 6.28069 13.6299C7.49307 13.8711 8.74973 13.7473 9.89177 13.2742C11.0338 12.8012 12.0099 12.0001 12.6967 10.9723C13.3834 9.94451 13.75 8.73613 13.75 7.5C13.75 6.67924 13.5883 5.86651 13.2742 5.10823C12.9602 4.34994 12.4998 3.66095 11.9194 3.08058C11.339 2.50022 10.6501 2.03984 9.89177 1.72575C9.13349 1.41166 8.32076 1.25 7.5 1.25ZM7.5 11.25C7.37639 11.25 7.25555 11.2133 7.15277 11.1447C7.04999 11.076 6.96988 10.9784 6.92258 10.8642C6.87527 10.75 6.86289 10.6243 6.88701 10.5031C6.91113 10.3818 6.97065 10.2705 7.05806 10.1831C7.14547 10.0956 7.25683 10.0361 7.37807 10.012C7.49931 9.98789 7.62497 10.0003 7.73918 10.0476C7.85338 10.0949 7.95099 10.175 8.01967 10.2778C8.08834 10.3805 8.125 10.5014 8.125 10.625C8.125 10.7908 8.05915 10.9497 7.94194 11.0669C7.82473 11.1842 7.66576 11.25 7.5 11.25ZM8.125 8.125C8.125 8.29076 8.05915 8.44973 7.94194 8.56694C7.82473 8.68415 7.66576 8.75 7.5 8.75C7.33424 8.75 7.17527 8.68415 7.05806 8.56694C6.94085 8.44973 6.875 8.29076 6.875 8.125V4.375C6.875 4.20924 6.94085 4.05027 7.05806 3.93306C7.17527 3.81585 7.33424 3.75 7.5 3.75C7.66576 3.75 7.82473 3.81585 7.94194 3.93306C8.05915 4.05027 8.125 4.20924 8.125 4.375V8.125Z" fill="#F4B647"/>
</svg>
