<svg width="21" height="21" viewBox="0 0 21 21" fill="none" xmlns="http://www.w3.org/2000/svg">
<path d="M20.4946 17.7165C20.8282 18.0756 21.0092 18.5492 20.9996 19.0382C20.9901 19.5271 20.7907 19.9934 20.4433 20.3393C20.0959 20.6852 19.6274 20.8839 19.1361 20.8938C18.6447 20.9036 18.1686 20.7238 17.8075 20.3921L10.5532 13.1738L3.29898 20.3921C3.1251 20.5793 2.91504 20.7295 2.68137 20.8339C2.44771 20.9383 2.19527 20.9947 1.93918 20.9996C1.68309 21.0046 1.42864 20.958 1.19108 20.8628C0.953512 20.7675 0.737734 20.6254 0.556682 20.4452C0.375629 20.2649 0.233031 20.0501 0.137439 19.8136C0.0418472 19.5772 -0.00476923 19.3239 0.000385243 19.0691C0.00553972 18.8143 0.0623589 18.5632 0.167435 18.3307C0.272512 18.0983 0.423681 17.8894 0.611878 17.7165L7.86612 10.4982L0.611878 3.28352C0.423681 3.11064 0.272512 2.90171 0.167435 2.66928C0.0623589 2.43685 0.00553972 2.18569 0.000385243 1.93088C-0.00476923 1.67606 0.0418472 1.42284 0.137439 1.18638C0.233031 0.949931 0.375629 0.735124 0.556682 0.554844C0.737734 0.374564 0.953512 0.232525 1.19108 0.137244C1.42864 0.0419631 1.68309 -0.00459627 1.93918 0.000357611C2.19527 0.00531149 2.44771 0.0616765 2.68137 0.166073C2.91504 0.270469 3.1251 0.420747 3.29898 0.607893L10.5532 7.82437L17.8075 0.606055C18.1686 0.274326 18.6447 0.0945444 19.1361 0.104386C19.6274 0.114227 20.0959 0.312927 20.4433 0.658847C20.7907 1.00477 20.9901 1.47106 20.9996 1.96C21.0092 2.44894 20.8282 2.92259 20.4946 3.28168L13.2403 10.4982L20.4946 17.7165Z" fill="black"/>
</svg>
